<?xml version="1.0" encoding="UTF-8" standalone="no"?>
<!DOCTYPE svg PUBLIC "-//W3C//DTD SVG 1.1//EN" "http://www.w3.org/Graphics/SVG/1.1/DTD/svg11.dtd">
<svg width="100%" height="100%" viewBox="0 0 800 600" version="1.1" xmlns="http://www.w3.org/2000/svg" xmlns:xlink="http://www.w3.org/1999/xlink" xml:space="preserve" xmlns:serif="http://www.serif.com/" style="fill-rule:evenodd;clip-rule:evenodd;stroke-linecap:round;stroke-linejoin:round;stroke-miterlimit:1.5;">
    <g transform="matrix(1,0,0,1,-963.266,-18.1488)">
        <g id="Artboard2" transform="matrix(1,0,0,1,963.266,18.1488)">
            <rect x="0" y="0" width="800" height="600" style="fill:none;"/>
            <g transform="matrix(1,0,0,1,-1046.05,-73.8523)">
                <ellipse cx="1457.6" cy="365.579" rx="209.889" ry="219.121" style="fill:rgb(252,219,145);"/>
                <clipPath id="_clip1">
                    <ellipse cx="1457.6" cy="365.579" rx="209.889" ry="219.121"/>
                </clipPath>
                <g clip-path="url(#_clip1)">
                    <g transform="matrix(1.15702,0,0,1,-184.407,51.7027)">
                        <path d="M1424.8,308.028L1564.39,646.804L1264.1,659.469L1424.8,308.028Z" style="fill:rgb(253,197,111);stroke:rgb(253,197,111);stroke-width:230.49px;"/>
                    </g>
                    <g transform="matrix(1.47619,0,0,1.18072,-342.821,-103.229)">
                        <path d="M1137.16,410.449L1209.55,572.943L1064.78,572.943L1137.16,410.449Z" style="fill:rgb(124,198,169);stroke:rgb(124,198,169);stroke-width:32.09px;"/>
                    </g>
                    <g transform="matrix(1.47364,0,0,1.18072,-85.0377,-102.067)">
                        <path d="M1137.16,410.449L1209.55,572.943L1064.78,572.943L1137.16,410.449Z" style="fill:rgb(124,198,169);stroke:rgb(124,198,169);stroke-width:32.12px;"/>
                    </g>
                    <g transform="matrix(1.06897,0,0,0.752381,158.804,82.8623)">
                        <path d="M1220.87,332.648L1349.39,642.865L1092.36,642.865L1220.87,332.648Z" style="fill:rgb(57,182,153);stroke:rgb(57,182,153);stroke-width:46.4px;"/>
                    </g>
                </g>
            </g>
        </g>
    </g>
</svg>
