<?xml version="1.0" encoding="utf-8"?>
<svg width="24px" height="24px" viewBox="0 0 24 24" version="1.1" xmlns:xlink="http://www.w3.org/1999/xlink" xmlns="http://www.w3.org/2000/svg">
  <defs>
    <path d="M0 0L24 0L24 24L0 24L0 0Z" id="path_1" />
    <clipPath id="mask_1">
      <use xlink:href="#path_1" />
    </clipPath>
  </defs>
  <g id="drop">
    <path d="M0 0L24 0L24 24L0 24L0 0Z" id="Background" fill="none" fill-rule="evenodd" stroke="none" />
    <g clip-path="url(#mask_1)">
      <path d="M6.98889 24C10.8148 23.9887 13.9643 20.7916 13.9352 16.9655C13.8947 11.6222 8.97629 5.95275 7.31101 0.258235C7.26058 0.0857348 7.11414 -0.000233902 6.96775 4.77925e-07C6.82131 -0.000233897 6.67487 0.0857349 6.62443 0.258235C4.9592 5.95275 0.0407463 11.6222 0.000199556 16.9655C-0.0288631 20.7916 3.12062 23.9887 6.94656 24" transform="translate(5.032303 0)" id="Shape" fill="#B2EDFF" fill-rule="evenodd" stroke="none" />
      <path d="M0.581268 4.46554C0.371643 4.46554 0.169424 4.35178 0.0658307 4.15331C-0.0823417 3.86901 0.0280495 3.51824 0.312299 3.37003C1.46299 2.77012 2.29352 1.70484 2.59066 0.447511C2.66458 0.135276 2.97607 -0.0582705 3.28943 0.0157928C3.60147 0.0895271 3.79465 0.402512 3.72096 0.71437C3.34596 2.30057 2.29919 3.64406 0.849113 4.39973C0.763284 4.44435 0.671597 4.46554 0.581268 4.46554L0.581268 4.46554Z" transform="translate(13.741905 17.61267)" id="Shape" fill="#E8FAFF" fill-rule="evenodd" stroke="none" />
      <path d="M9.31143 23.2259L9.2691 23.2259C5.44316 23.2138 2.29368 19.8104 2.32274 15.7375C2.35288 11.51 5.07716 7.0906 7.15799 2.61103C7.49906 1.87683 7.54218 1.04667 7.31437 0.26986C7.31324 0.265969 7.31212 0.262126 7.31099 0.258235C7.26056 0.0857351 7.11412 -0.000233693 6.96773 6.87465e-07C6.82129 -0.000280563 6.6749 0.0857351 6.62441 0.258235C4.85113 6.32222 -0.61121 12.3579 0.0561969 18.0015C0.463869 21.4489 3.47512 24 6.94659 24L6.98887 24C8.18104 23.9964 9.3073 23.6832 10.2924 23.1383C9.97087 23.1892 9.64499 23.2248 9.31143 23.2259L9.31143 23.2259Z" transform="translate(5.0322723 0)" id="Shape" fill="#59D8FF" fill-rule="evenodd" stroke="none" />
    </g>
  </g>
</svg>