<?xml version="1.0" encoding="utf-8"?>
<svg width="25px" height="24px" viewBox="0 0 25 24" version="1.1" xmlns:xlink="http://www.w3.org/1999/xlink" xmlns="http://www.w3.org/2000/svg">
  <g id="rain">
    <g id="Group">
      <path d="M19.6636 7.07883C19.3746 5.66297 18.2244 4.5547 16.7365 4.3192C16.1794 2.07675 14.2747 0.354844 12 0.0609375C11.7679 0.0309844 11.5358 0 11.2969 0C8.72264 0 6.50133 1.82048 5.8717 4.27111C5.80575 4.26769 5.73919 4.26563 5.67188 4.26563C2.5703 4.26563 0 6.78905 0 9.89063C0 12.9922 2.5703 15.5156 5.67188 15.5156L12 15.5156L19.7344 15.5156C22.0607 15.5156 24 13.6232 24 11.2969C24 8.94717 22.0353 7.03556 19.6636 7.07883L19.6636 7.07883Z" id="Shape" fill="#F3F5F9" fill-rule="evenodd" stroke="none" />
      <path d="M12 11.2359C12 8.88624 10.0353 6.97463 7.66364 7.01789C7.37457 5.60203 6.22444 4.49377 4.73649 4.25827C4.17942 2.01581 2.2747 0.293907 0 0L0 15.4547L7.73438 15.4547C10.0607 15.4547 12 13.5623 12 11.2359L12 11.2359Z" transform="translate(12.000003 0.0609131)" id="Shape" fill="#E1E6F0" fill-rule="evenodd" stroke="none" />
      <g id="Group" transform="translate(4.265626 16.940128)">
        <path d="M2.10938 5.60678C0.946219 5.60678 0 4.66056 0 3.4974C0 2.59857 1.07048 0.951995 1.53052 0.285293C1.79419 -0.0950975 2.42452 -0.0950975 2.68819 0.285293C3.14827 0.951995 4.21875 2.59857 4.21875 3.4974C4.21875 4.66056 3.27253 5.60678 2.10938 5.60678L2.10938 5.60678Z" id="Shape" fill="#66CCFF" fill-rule="evenodd" stroke="none" />
      </g>
      <g id="Group" transform="translate(15.515629 16.940128)">
        <path d="M2.10938 5.60678C0.946219 5.60678 0 4.66056 0 3.4974C0 2.59857 1.07048 0.951995 1.53052 0.285293C1.79419 -0.0950975 2.42452 -0.0950975 2.68819 0.285293C3.14827 0.951995 4.21875 2.59857 4.21875 3.4974C4.21875 4.66056 3.27253 5.60678 2.10938 5.60678L2.10938 5.60678Z" id="Shape" fill="#59ABFF" fill-rule="evenodd" stroke="none" />
      </g>
      <path d="M2.68824 0.285281C2.55638 0.0950618 2.33288 0 2.10938 0C1.88588 0 1.66238 0.095109 1.53052 0.285281C1.07048 0.951984 0 2.59856 0 3.49739C0 4.66055 0.946219 5.65364 2.10938 5.65364C3.27253 5.65364 4.21875 4.66055 4.21875 3.49739C4.21875 2.59856 3.14827 0.951984 2.68824 0.285281L2.68824 0.285281Z" transform="translate(9.890627 18.346378)" id="Shape" fill="#66CCFF" fill-rule="evenodd" stroke="none" />
      <path d="M2.10938 3.49739C2.10938 2.59856 1.03889 0.951984 0.57886 0.285281C0.447001 0.0950618 0.2235 0 0 0L0 5.65364C1.16316 5.65364 2.10938 4.66055 2.10938 3.49739L2.10938 3.49739Z" transform="translate(12.000003 18.346378)" id="Shape" fill="#59ABFF" fill-rule="evenodd" stroke="none" />
    </g>
  </g>
</svg>