<?xml version="1.0" encoding="utf-8"?>
<svg width="24px" height="24px" viewBox="0 0 24 24" version="1.1" xmlns:xlink="http://www.w3.org/1999/xlink" xmlns="http://www.w3.org/2000/svg">
  <defs>
    <path d="M0 0L24 0L24 24L0 24L0 0Z" id="path_1" />
    <clipPath id="mask_1">
      <use xlink:href="#path_1" />
    </clipPath>
  </defs>
  <g id="wind">
    <path d="M0 0L24 0L24 24L0 24L0 0Z" id="Background" fill="none" fill-rule="evenodd" stroke="none" />
    <g clip-path="url(#mask_1)">
      <g id="Group" transform="translate(3.0517578E-05 1)">
        <g id="Group">
          <g id="Group">
            <path d="M1.12563 5.74187C1.40749 5.71909 1.67965 5.58831 1.86799 5.359C1.96502 5.24143 4.30329 2.479 10.2613 1.99712C10.8373 1.95053 11.2673 1.46654 11.2227 0.916089C11.1782 0.365636 10.6761 -0.042974 10.1001 0.00361991C3.15091 0.565699 0.332224 3.99887 0.216021 4.14498C0.0717393 4.32512 0.00137994 4.53625 2.05739e-05 4.74573C-0.00194818 5.0455 0.137411 5.34184 0.403567 5.53918C0.617036 5.69678 0.874286 5.76222 1.12563 5.74187L1.12563 5.74187Z" transform="translate(0 7.7545166)" id="Shape" fill="#FFFFFF" fill-rule="evenodd" stroke="none" />
            <path d="M19.4655 0C17.4533 0 16.3078 1.21045 16.1832 1.34812C15.8106 1.76269 15.8606 2.38134 16.2894 2.74364C16.7172 3.10547 17.3747 3.06544 17.7606 2.66161C17.7861 2.63475 18.4017 1.99997 19.4655 1.99997C20.2853 1.99997 20.9091 2.99948 20.9091 3.49997C20.9091 4.70944 20.6743 5.99995 17.875 5.99995C15.8995 5.99995 14.6662 5.73872 13.4737 5.4863C12.3436 5.24752 11.1756 4.99997 9.50946 4.99997C6.73971 4.99997 1.81985 7.11909 0.101649 10.5698C-0.146414 11.0688 0.0751173 11.6655 0.596789 11.9028C0.741774 11.9687 0.894914 12 1.04496 12C1.43599 12 1.81066 11.7895 1.99034 11.4302C3.26956 8.86036 7.36957 7.00003 9.50946 7.00003C10.9469 7.00003 11.9086 7.20365 13.0214 7.43948C14.2639 7.70217 15.6707 8.00001 17.8749 8.00001C19.7892 8.00001 22.9999 7.41553 22.9999 3.50001C22.9999 2.07272 21.6227 0 19.4655 0L19.4655 0Z" transform="translate(1.0000286 6.500122)" id="Shape" fill="#FFFFFF" fill-rule="evenodd" stroke="none" />
            <path d="M6.35372 0C1.19803 0 0.0842328 3.57666 0.0392797 3.72853C-0.115923 4.25541 0.202639 4.79738 0.750842 4.95267C1.30111 5.106 1.87997 4.80619 2.04844 4.28325C2.07905 4.18997 2.82942 2.00006 6.35367 2.00006C9.89015 2.00006 11.5002 3.0367 11.5002 4.00008C11.5002 5.00006 11.0295 5.00006 10.7763 5.00006C10.5762 5.00006 10.1025 4.68464 9.8054 4.35408C9.43275 3.93319 8.77425 3.87848 8.33119 4.23689C7.89117 4.59384 7.83604 5.22469 8.20865 5.64609C8.40979 5.87217 9.47358 7.00008 10.7763 7.00008C12.0749 7.00008 13.591 6.21445 13.591 4.00008C13.5911 2.06639 11.6901 0 6.35372 0L6.35372 0Z" transform="translate(5.181772 15)" id="Shape" fill="#FFFFFF" fill-rule="evenodd" stroke="none" />
            <path d="M1.01785 7.00004C3.87132 7.00004 7.31799 5.01568 7.31799 2.55179C7.31799 2.2089 7.23591 1.88139 7.0853 1.57046C7.41258 1.32536 7.74474 1.10551 8.07554 0.947309C8.33382 0.823793 8.43797 0.523465 8.30935 0.276433C8.17969 0.0288866 7.86727 -0.070254 7.60796 0.0527928C7.11052 0.29073 6.61491 0.636527 6.13979 1.02864C6.11541 1.04321 5.75344 1.3539 5.74111 1.36811C5.11046 1.95854 4.57988 2.62126 4.23788 3.27643L4.23788 3.2769C4.11333 3.51714 3.79069 3.62214 3.53649 3.50054C3.41194 3.44097 3.31903 3.33845 3.27413 3.21147C3.2302 3.085 3.24042 2.94925 3.30272 2.83014C3.65086 2.16264 4.16133 1.48347 4.77694 0.866262C4.92905 0.714903 4.96477 0.488824 4.86881 0.300856C4.77183 0.113824 4.57172 0.00155881 4.34508 0.0240119C1.89792 0.267668 0 3.45076 0 6.02645C-4.43459e-05 6.56303 0.45633 7.00004 1.01785 7.00004L1.01785 7.00004Z" transform="translate(13.545722 0)" id="Shape" fill="#F8C822" fill-rule="evenodd" stroke="none" />
          </g>
        </g>
      </g>
    </g>
  </g>
</svg>